<svg width="32" height="33" viewBox="0 0 32 33" fill="none" xmlns="http://www.w3.org/2000/svg">
<path d="M30.282 30.2703V21.328C31.3179 20.4651 31.9786 19.1663 31.9786 17.7158V15.5981L16.9378 7.22725V6.02075H22.3521V0.8125H15.0628V7.22744L0 15.5977V17.7158C0 19.1767 0.67 20.4839 1.71869 21.3467V30.2702H0.000625V32.1452H32V30.2702L30.282 30.2703ZM16.9378 2.68744H20.4771V4.14575H16.9378V2.68744ZM29.2571 16.2292H24.1628L19.5001 10.799L29.2571 16.2292ZM16.9268 10.6803L21.6916 16.2292H16.9268V10.6803ZM22.5511 18.1042C22.3613 19.4791 21.1784 20.5412 19.7523 20.5412C18.3259 20.5412 17.1431 19.4791 16.9534 18.1042H22.5511ZM10.3048 16.2292L15.0518 10.6856V16.2292H10.3048ZM15.0251 18.1042C14.8354 19.4791 13.6525 20.5412 12.2263 20.5412C10.8 20.5412 9.61719 19.4791 9.42744 18.1042H15.0251ZM12.4776 10.809L7.83625 16.2292H2.7235L12.4776 10.809ZM1.90156 18.1042H7.49919C7.30944 19.4791 6.12656 20.5412 4.70038 20.5412C3.27419 20.5413 2.09131 19.4791 1.90156 18.1042ZM7.59869 30.2703H3.59369V22.2834C3.94887 22.3695 4.31919 22.4162 4.70044 22.4162C6.23787 22.4162 7.60525 21.6742 8.46338 20.5296C9.3215 21.6742 10.6888 22.4162 12.2264 22.4162C13.199 22.4162 14.1034 22.1193 14.854 21.6114C14.6313 22.7431 14.2332 23.8389 13.6708 24.8514C12.7602 26.4907 11.4373 27.8811 9.84513 28.8721L7.59869 30.2703ZM11.1362 30.2703C12.8642 29.1269 14.3029 27.5749 15.31 25.7619C15.5706 25.2926 15.8008 24.8079 16.0004 24.3114C16.2 24.8078 16.4301 25.2926 16.6908 25.7619C17.6979 27.5749 19.1366 29.1269 20.8646 30.2703H11.1362ZM28.407 30.2702H24.4019L22.1555 28.8721C20.5634 27.8811 19.2404 26.4908 18.3298 24.8514C17.7701 23.8438 17.3733 22.7537 17.1501 21.6279C17.8957 22.1254 18.7905 22.4162 19.7522 22.4162C21.2896 22.4162 22.657 21.6742 23.5151 20.5296C24.3732 21.6742 25.7406 22.4162 27.2781 22.4162C27.6672 22.4162 28.0451 22.3679 28.407 22.2782V30.2702ZM27.2781 20.5413C25.8518 20.5413 24.669 19.4791 24.4792 18.1042H30.0769C29.8872 19.4791 28.7044 20.5413 27.2781 20.5413Z" fill="#10375C"/>
</svg>
