<svg width="120" height="40" viewBox="0 0 120 40" fill="none" xmlns="http://www.w3.org/2000/svg">
<path d="M116.262 24.2047L119.591 26.4405C118.511 28.0439 115.927 30.7946 111.459 30.7946C105.911 30.7946 101.779 26.47 101.779 20.9686C101.779 15.1142 105.954 11.1426 110.992 11.1426C116.058 11.1426 118.54 15.2024 119.343 17.3942L119.781 18.5121L106.728 23.9546C107.721 25.9257 109.269 26.926 111.459 26.926C113.649 26.926 115.167 25.8375 116.262 24.2047ZM106.027 20.6597L114.744 17.0117C114.262 15.7908 112.831 14.9229 111.123 14.9229C108.948 14.9229 105.925 16.8646 106.027 20.6597Z" fill="#FF302F"/>
<path d="M72.4465 20.9686C72.4465 26.6318 68.0663 30.7946 62.6934 30.7946C57.3204 30.7946 52.9403 26.6318 52.9403 20.9686C52.9403 15.276 57.3204 11.1426 62.6934 11.1426C68.0663 11.1426 72.4465 15.2613 72.4465 20.9686ZM68.1685 20.9686C68.1685 17.4383 65.6281 15.0112 62.6788 15.0112C59.7295 15.0112 57.189 17.4383 57.189 20.9686C57.189 24.4695 59.7295 26.926 62.6788 26.926C65.6427 26.926 68.1685 24.4548 68.1685 20.9686Z" fill="#FFBA40"/>
<path d="M88.8573 11.9075H92.9162V29.3825C92.9162 36.6343 88.6675 39.6204 83.645 39.6204C78.9145 39.6204 76.0674 36.4137 75.0015 33.8101L78.7246 32.2509C79.3963 33.8542 81.0169 35.7518 83.645 35.7518C86.8717 35.7518 88.8573 33.7366 88.8573 29.9709V28.5588H88.7113C87.7477 29.7356 85.908 30.7946 83.572 30.7946C78.6954 30.7946 74.2277 26.5142 74.2277 20.9981C74.2277 15.4525 78.6954 11.1279 83.572 11.1279C85.8934 11.1279 87.7477 12.1723 88.7113 13.3197H88.8573V11.9075ZM89.1493 20.9981C89.1493 17.5266 86.8571 14.9966 83.937 14.9966C80.9877 14.9966 78.5056 17.5266 78.5056 20.9981C78.5056 24.4254 80.9877 26.9113 83.937 26.9113C86.8571 26.926 89.1493 24.4254 89.1493 20.9981Z" fill="#3686F7"/>
<path d="M51.1444 20.9245C51.1444 26.5876 46.7643 30.7505 41.3914 30.7505C36.0184 30.7505 31.6383 26.5729 31.6383 20.9245C31.6383 15.2318 36.0184 11.0837 41.3914 11.0837C46.7643 11.0837 51.1444 15.2318 51.1444 20.9245ZM46.8811 20.9245C46.8811 17.3942 44.3406 14.9671 41.3914 14.9671C38.4421 14.9671 35.9016 17.3942 35.9016 20.9245C35.9016 24.4253 38.4421 26.8818 41.3914 26.8818C44.3406 26.8818 46.8811 24.4253 46.8811 20.9245Z" fill="#FF302F"/>
<path d="M95.4859 1.12537H99.6908V29.8973H95.4859V1.12537Z" fill="#20B15A"/>
<path d="M15.607 26.4846C9.48947 26.4846 4.70054 21.5128 4.70054 15.3495C4.70054 9.18617 9.48947 4.21433 15.607 4.21433C18.9067 4.21433 21.3158 5.52348 23.0971 7.20037L26.0317 4.24375C23.5497 1.84608 20.2354 0.0220947 15.607 0.0220947C7.22641 0.0220947 0.174408 6.90618 0.174408 15.3495C0.174408 23.7928 7.22641 30.6769 15.607 30.6769C20.1332 30.6769 23.5497 29.1765 26.2215 26.3817C28.9664 23.6163 29.8132 19.7329 29.8132 16.5851C29.8132 15.5995 29.6964 14.5846 29.565 13.8344H15.607V17.9237H25.5499C25.2579 20.4831 24.4549 22.2336 23.2723 23.4251C21.8414 24.8813 19.5784 26.4846 15.607 26.4846Z" fill="#3686F7"/>
</svg>
