<svg width="24" height="25" viewBox="0 0 24 25" fill="none" xmlns="http://www.w3.org/2000/svg">
<path fill-rule="evenodd" clip-rule="evenodd" d="M2 12.479C2 8.28763 2 6.19195 3.05041 4.74619C3.38964 4.27926 3.80026 3.86865 4.26718 3.52941C5.71294 2.479 7.80863 2.479 12 2.479C16.1914 2.479 18.2871 2.479 19.7328 3.52941C20.1997 3.86865 20.6104 4.27926 20.9496 4.74619C22 6.19195 22 8.28763 22 12.479C22 16.6704 22 18.7661 20.9496 20.2118C20.6104 20.6787 20.1997 21.0894 19.7328 21.4286C18.2871 22.479 16.1914 22.479 12 22.479C7.80863 22.479 5.71294 22.479 4.26718 21.4286C3.80026 21.0894 3.38964 20.6787 3.05041 20.2118C2 18.7661 2 16.6704 2 12.479ZM12 7.18489C9.07632 7.18489 6.70588 9.55533 6.70588 12.479C6.70588 15.4027 9.07632 17.7731 12 17.7731C14.9237 17.7731 17.2941 15.4027 17.2941 12.479C17.2941 9.55533 14.9237 7.18489 12 7.18489ZM12 15.7878C10.1762 15.7878 8.69118 14.3028 8.69118 12.479C8.69118 10.6539 10.1762 9.17018 12 9.17018C13.8238 9.17018 15.3088 10.6539 15.3088 12.479C15.3088 14.3028 13.8238 15.7878 12 15.7878ZM18.3966 6.78784C18.3966 7.17744 18.0808 7.49328 17.6912 7.49328C17.3016 7.49328 16.9857 7.17744 16.9857 6.78784C16.9857 6.39823 17.3016 6.08239 17.6912 6.08239C18.0808 6.08239 18.3966 6.39823 18.3966 6.78784Z" fill="white"/>
</svg>
