<svg width="32" height="33" viewBox="0 0 32 33" fill="none" xmlns="http://www.w3.org/2000/svg">
<path d="M28.25 7.97888C30.3179 7.97888 32 6.29675 32 4.22888C32 2.16101 30.3179 0.478882 28.25 0.478882C26.1821 0.478882 24.5 2.16101 24.5 4.22888C24.5 6.29675 26.1821 7.97888 28.25 7.97888ZM28.25 2.97888C28.9392 2.97888 29.5 3.53967 29.5 4.22888C29.5 4.91809 28.9392 5.47888 28.25 5.47888C27.5608 5.47888 27 4.91809 27 4.22888C27 3.53967 27.5608 2.97888 28.25 2.97888ZM3.75 7.97888C5.81787 7.97888 7.5 6.29675 7.5 4.22888C7.5 2.16101 5.81787 0.478882 3.75 0.478882C1.68213 0.478882 0 2.16101 0 4.22888C0 6.29675 1.68213 7.97888 3.75 7.97888ZM3.75 2.97888C4.43921 2.97888 5 3.53967 5 4.22888C5 4.91809 4.43921 5.47888 3.75 5.47888C3.06079 5.47888 2.5 4.91809 2.5 4.22888C2.5 3.53967 3.06079 2.97888 3.75 2.97888ZM28.2695 9.16638C28.2634 9.16638 28.2573 9.16638 28.2512 9.16638C25.6638 9.16638 24.6829 11.0502 24.0647 12.8942C23.8545 13.5214 23.3982 14.8917 23.0986 15.7914H21.625V12.9164C21.625 10.8485 19.9429 9.16638 17.875 9.16638H14.125C12.0571 9.16638 10.375 10.8485 10.375 12.9164V15.7914H8.90137C8.60181 14.8917 8.14551 13.5214 7.9353 12.8942C7.31689 11.0502 6.33643 9.16638 3.74878 9.16638C3.74268 9.16638 3.73633 9.16638 3.73022 9.16638C1.67334 9.17346 0 10.8558 0 12.9164V19.7289C0 21.3585 1.04517 22.7479 2.5 23.2638V23.2914C2.53223 23.2914 2.56372 23.2938 2.59546 23.2963C2.73462 23.3414 2.8772 23.3788 3.02295 23.4076C3.45142 23.6058 3.75 24.0389 3.75 24.5414V32.4789H6.25V24.5414C6.25 24.1725 6.19556 23.816 6.0957 23.4789H7.5625C8.25171 23.4789 8.8125 24.0397 8.8125 24.7289V32.4789H11.3125V24.7289C11.3125 22.661 9.63037 20.9789 7.5625 20.9789H3.75C3.71777 20.9789 3.68628 20.9764 3.65454 20.974C3.51538 20.9288 3.3728 20.8915 3.22705 20.8627C2.79858 20.6644 2.5 20.2313 2.5 19.7289V12.9164C2.5 12.2296 3.05591 11.6688 3.73901 11.6664C4.30396 11.6644 4.8855 11.6625 5.5647 13.6886C5.8894 14.6571 6.80469 17.4083 6.81396 17.4359L7.09839 18.2914H24.9016L25.186 17.4359C25.1953 17.4083 26.1106 14.6571 26.4353 13.6886C27.1143 11.6625 27.696 11.6652 28.261 11.6664C28.9441 11.6688 29.5 12.2296 29.5 12.9164V19.7289C29.5 20.2313 29.2014 20.6644 28.7729 20.8627C28.6272 20.8915 28.4846 20.9288 28.3455 20.974C28.3137 20.9764 28.2822 20.9789 28.25 20.9789H24.5C22.4321 20.9789 20.75 22.661 20.75 24.7289V32.4789H23.25V24.7289C23.25 24.0397 23.8108 23.4789 24.5 23.4789H25.9043C25.8044 23.816 25.75 24.1725 25.75 24.5414V32.4789H28.25V24.5414C28.25 24.0389 28.5486 23.6058 28.9771 23.4076C29.1228 23.3788 29.2654 23.3414 29.4045 23.2963C29.4363 23.2938 29.4678 23.2914 29.5 23.2914V23.2638C30.9548 22.7479 32 21.3585 32 19.7289V12.9164C32 10.8558 30.3267 9.17346 28.2695 9.16638ZM12.875 12.9164C12.875 12.2272 13.4358 11.6664 14.125 11.6664H17.875C18.5642 11.6664 19.125 12.2272 19.125 12.9164V15.7914H12.875V12.9164ZM16 7.97888C18.0679 7.97888 19.75 6.29675 19.75 4.22888C19.75 2.16101 18.0679 0.478882 16 0.478882C13.9321 0.478882 12.25 2.16101 12.25 4.22888C12.25 6.29675 13.9321 7.97888 16 7.97888ZM16 2.97888C16.6892 2.97888 17.25 3.53967 17.25 4.22888C17.25 4.91809 16.6892 5.47888 16 5.47888C15.3108 5.47888 14.75 4.91809 14.75 4.22888C14.75 3.53967 15.3108 2.97888 16 2.97888Z" fill="#10375C"/>
</svg>
