<svg width="170" height="37" viewBox="0 0 170 37" fill="none" xmlns="http://www.w3.org/2000/svg">
<g clip-path="url(#clip0_63_454)">
<path d="M19.0546 19.6951H36.3079V36.925H19.0546V19.6951Z" fill="#FFB900"/>
<path d="M0 19.6951H17.2533V36.925H0V19.6951Z" fill="#00A4EF"/>
<path d="M60.0066 21.55L58.9934 24.4169H58.9089C58.7401 23.7705 58.4305 22.7867 57.9238 21.6062L52.4917 7.97402H47.1722V29.7012H50.6904V16.2939C50.6904 15.4506 50.6904 14.495 50.6622 13.3145C50.6341 12.7242 50.5778 12.2745 50.5497 11.9372H50.6341C50.803 12.7804 51 13.3988 51.1407 13.7923L57.6705 29.6449H60.1473L66.6209 13.6517C66.7616 13.2863 66.9023 12.5556 67.043 11.9372H67.1275C67.043 13.5393 66.9867 14.9728 66.9586 15.8441V29.6168H70.702V7.9178H65.5795L60.0066 21.55ZM74.2483 14.0453H77.9073V29.6168H74.2483V14.0453ZM76.1059 7.46808C75.4867 7.46808 74.9801 7.69294 74.5579 8.08645C74.1357 8.47996 73.9106 8.98589 73.9106 9.60426C73.9106 10.1945 74.1357 10.7005 74.5579 11.094C74.9801 11.4875 75.4867 11.6842 76.1059 11.6842C76.7252 11.6842 77.2599 11.4594 77.654 11.094C78.0761 10.7005 78.3013 10.1945 78.3013 9.60426C78.3013 9.014 78.0761 8.50806 77.654 8.08645C77.2881 7.69294 76.7533 7.46808 76.1059 7.46808ZM90.8824 13.9047C90.2069 13.7642 89.5033 13.6799 88.8278 13.6799C87.1672 13.6799 85.6473 14.0453 84.3808 14.776C83.1142 15.5068 82.101 16.5187 81.4536 17.7836C80.7781 19.0765 80.4404 20.5662 80.4404 22.2808C80.4404 23.7705 80.7781 25.0915 81.4255 26.3001C82.0728 27.4807 82.9735 28.4363 84.1838 29.0828C85.3377 29.7293 86.6887 30.0666 88.2086 30.0666C89.9536 30.0666 91.4454 29.7012 92.6275 29.0266L92.6556 28.9985V25.6256L92.5149 25.738C91.9801 26.1315 91.3609 26.4688 90.7417 26.6655C90.0944 26.8904 89.5033 27.0028 88.9967 27.0028C87.5331 27.0028 86.3791 26.5812 85.5629 25.6537C84.7185 24.7542 84.2963 23.5175 84.2963 21.9716C84.2963 20.3695 84.7185 19.1046 85.591 18.1771C86.4636 17.2495 87.6175 16.7717 89.0248 16.7717C90.2069 16.7717 91.4172 17.1652 92.5149 17.9522L92.6556 18.0646V14.495L92.6275 14.4669C92.149 14.2701 91.6142 14.0453 90.8824 13.9047ZM102.957 13.7923C102.056 13.7923 101.212 14.0734 100.48 14.6636C99.8609 15.1696 99.4387 15.9004 99.0728 16.7717H99.0447V14.0453H95.3857V29.6168H99.0447V21.6624C99.0447 20.3132 99.3261 19.1889 99.9454 18.3738C100.565 17.5306 101.353 17.109 102.31 17.109C102.647 17.109 102.985 17.1933 103.407 17.2495C103.801 17.3619 104.083 17.4744 104.28 17.6149L104.421 17.7273V14.0734L104.336 14.0453C104.083 13.8766 103.576 13.7923 102.957 13.7923ZM112.921 13.708C110.359 13.708 108.305 14.4669 106.869 15.9566C105.406 17.4463 104.702 19.4981 104.702 22.084C104.702 24.5013 105.434 26.4688 106.841 27.9023C108.248 29.3077 110.162 30.0385 112.555 30.0385C115.06 30.0385 117.058 29.2796 118.493 27.7617C119.957 26.2439 120.661 24.2202 120.661 21.7186C120.661 19.2452 119.985 17.2776 118.606 15.8441C117.283 14.4107 115.341 13.708 112.921 13.708ZM115.848 25.6818C115.172 26.5531 114.103 26.9747 112.78 26.9747C111.457 26.9747 110.387 26.5531 109.627 25.6256C108.868 24.7542 108.502 23.4894 108.502 21.8873C108.502 20.2289 108.896 18.9641 109.627 18.0646C110.387 17.1652 111.429 16.7155 112.752 16.7155C114.046 16.7155 115.06 17.1371 115.791 18.0084C116.523 18.8798 116.917 20.1446 116.917 21.8029C116.861 23.4894 116.551 24.8104 115.848 25.6818ZM128.823 20.51C127.669 20.0322 126.937 19.6668 126.599 19.3576C126.318 19.0765 126.177 18.683 126.177 18.1771C126.177 17.7554 126.346 17.3338 126.768 17.0528C127.19 16.7717 127.669 16.6311 128.372 16.6311C128.992 16.6311 129.639 16.7436 130.258 16.9122C130.877 17.0809 131.44 17.3338 131.891 17.6711L132.031 17.7836V14.3544L131.947 14.3263C131.525 14.1577 130.962 13.989 130.286 13.8485C129.611 13.7361 128.992 13.6799 128.485 13.6799C126.74 13.6799 125.305 14.1015 124.179 15.029C123.053 15.9004 122.518 17.0809 122.518 18.4581C122.518 19.1889 122.631 19.8354 122.884 20.3695C123.137 20.9035 123.503 21.4094 124.01 21.831C124.517 22.2246 125.248 22.6743 126.262 23.0959C127.106 23.4613 127.753 23.7424 128.147 23.9672C128.541 24.1921 128.795 24.4451 128.992 24.6418C129.132 24.8667 129.217 25.1477 129.217 25.5131C129.217 26.5531 128.429 27.0591 126.824 27.0591C126.205 27.0591 125.558 26.9466 124.798 26.6937C124.038 26.4407 123.334 26.0753 122.743 25.6537L122.603 25.5412V29.1109L122.687 29.139C123.222 29.392 123.869 29.5606 124.657 29.7574C125.445 29.8979 126.149 30.0103 126.768 30.0103C128.654 30.0103 130.202 29.5887 131.3 28.6612C132.425 27.7617 133.017 26.6093 133.017 25.1196C133.017 24.0797 132.735 23.1521 132.116 22.4494C131.3 21.7748 130.286 21.0721 128.823 20.51ZM142.671 13.708C140.109 13.708 138.055 14.4669 136.619 15.9566C135.184 17.4463 134.452 19.4981 134.452 22.084C134.452 24.5013 135.184 26.4688 136.591 27.9023C137.998 29.3077 139.912 30.0385 142.305 30.0385C144.81 30.0385 146.808 29.2796 148.243 27.7617C149.707 26.2439 150.411 24.2202 150.411 21.7186C150.411 19.2452 149.735 17.2776 148.356 15.8441C147.033 14.4107 145.091 13.708 142.671 13.708ZM145.57 25.6818C144.894 26.5531 143.824 26.9747 142.502 26.9747C141.151 26.9747 140.109 26.5531 139.349 25.6256C138.589 24.7542 138.223 23.4894 138.223 21.8873C138.223 20.2289 138.618 18.9641 139.349 18.0646C140.109 17.1652 141.151 16.7155 142.473 16.7155C143.74 16.7155 144.781 17.1371 145.513 18.0084C146.245 18.8798 146.639 20.1446 146.639 21.8029C146.639 23.4894 146.273 24.8104 145.57 25.6818ZM169.972 17.0528V14.0453H166.285V9.43561L166.172 9.46372L162.682 10.5037L162.598 10.5318V14.0453H157.081V12.0777C157.081 11.1783 157.306 10.4756 157.7 10.0259C158.094 9.57615 158.685 9.35129 159.417 9.35129C159.924 9.35129 160.459 9.46372 161.05 9.71669L161.19 9.80101V6.62486L161.106 6.59675C160.599 6.4281 159.924 6.31567 159.051 6.31567C157.954 6.31567 156.997 6.56864 156.124 6.99026C155.252 7.46808 154.604 8.11456 154.126 8.98589C153.647 9.82912 153.394 10.7848 153.394 11.881V14.0453H150.833V17.0247H153.394V29.6168H157.081V17.0528H162.598V25.0634C162.598 28.352 164.146 30.0103 167.242 30.0103C167.748 30.0103 168.283 29.926 168.79 29.8417C169.324 29.7293 169.719 29.5887 169.944 29.4763L169.972 29.4482V26.4407L169.831 26.5531C169.606 26.6937 169.409 26.8061 169.071 26.8904C168.79 26.9747 168.536 27.0028 168.339 27.0028C167.608 27.0028 167.101 26.8342 166.735 26.4126C166.397 26.0191 166.228 25.3726 166.228 24.4169V17.0528H169.972Z" fill="#737373"/>
<path d="M19.0546 0.66626H36.3079V17.8962H19.0546V0.66626Z" fill="#7FBA00"/>
<path d="M0 0.66626H17.2533V17.8962H0V0.66626Z" fill="#F25022"/>
</g>
<defs>
<clipPath id="clip0_63_454">
<rect width="170" height="36.2587" fill="white" transform="translate(0 0.66626)"/>
</clipPath>
</defs>
</svg>
