<svg width="146" height="47" viewBox="0 0 146 47" fill="none" xmlns="http://www.w3.org/2000/svg">
<g clip-path="url(#clip0_63_460)">
<path d="M31.3151 10.429C31.2912 10.2149 31.1007 10.1198 30.9579 10.1198C30.815 10.1198 27.6954 9.88196 27.6954 9.88196C27.6954 9.88196 25.5283 7.71762 25.2664 7.50356C25.0282 7.26572 24.5758 7.33707 24.3853 7.38464C24.3615 7.38464 23.909 7.52735 23.1708 7.76518C22.4325 5.64841 21.1704 3.72191 18.9081 3.72191H18.6938C18.0746 2.91326 17.265 2.53271 16.5982 2.53271C11.3592 2.53271 8.8349 9.0733 8.04905 12.4031C6.00107 13.0452 4.54843 13.4733 4.38174 13.5447C3.23868 13.9014 3.21486 13.9252 3.07198 14.9955C2.95291 15.8042 -0.0238037 38.8032 -0.0238037 38.8032L23.1469 43.1319L35.7206 40.4206C35.7444 40.373 31.3389 10.643 31.3151 10.429ZM21.8848 8.09816C21.3133 8.26465 20.6227 8.4787 19.9321 8.71654V8.28843C19.9321 7.00409 19.7654 5.9576 19.4558 5.12516C20.6465 5.26787 21.3847 6.57599 21.8848 8.09816ZM18.0032 5.38679C18.3128 6.19544 18.5271 7.33707 18.5271 8.90681V9.14465C17.2411 9.54898 15.8838 9.9533 14.4788 10.4052C15.2646 7.40842 16.7649 5.93382 18.0032 5.38679ZM16.4791 3.91218C16.7172 3.91218 16.9554 4.00732 17.1459 4.15002C15.4551 4.93489 13.6691 6.90896 12.9309 10.9047C11.8116 11.2614 10.74 11.5706 9.71601 11.9036C10.5733 8.85924 12.7165 3.91218 16.4791 3.91218Z" fill="#95BF47"/>
<path d="M18.9081 17.0171L17.384 21.6074C17.384 21.6074 16.0028 20.8701 14.3597 20.8701C11.9069 20.8701 11.7878 22.4161 11.7878 22.7966C11.7878 24.8896 17.265 25.6983 17.265 30.6216C17.265 34.4983 14.8121 36.9957 11.502 36.9957C7.50133 36.9957 5.50098 34.5221 5.50098 34.5221L6.57259 31.0021C6.57259 31.0021 8.6682 32.8097 10.4304 32.8097C11.5973 32.8097 12.0736 31.9059 12.0736 31.2399C12.0736 28.5048 7.59658 28.3859 7.59658 23.8669C7.59658 20.0853 10.3113 16.4225 15.8123 16.4225C17.8603 16.3988 18.9081 17.0171 18.9081 17.0171Z" fill="white"/>
<path d="M50.3899 25.6507C49.1277 24.9848 48.4848 24.3902 48.4848 23.6053C48.4848 22.6064 49.3897 21.9642 50.7947 21.9642C52.4378 21.9642 53.8905 22.6302 53.8905 22.6302L55.0335 19.1339C55.0335 19.1339 53.9857 18.3253 50.8899 18.3253C46.5797 18.3253 43.5791 20.7988 43.5791 24.2712C43.5791 26.2453 44.9841 27.7437 46.8416 28.814C48.3657 29.6464 48.8896 30.2648 48.8896 31.1686C48.8896 32.0962 48.1276 32.8573 46.7225 32.8573C44.6508 32.8573 42.6742 31.787 42.6742 31.787L41.4597 35.2832C41.4597 35.2832 43.2696 36.4962 46.3177 36.4962C50.7471 36.4962 53.9619 34.3081 53.9619 30.3837C53.9143 28.2432 52.3188 26.7686 50.3899 25.6507ZM68.0596 18.2777C65.8688 18.2777 64.1542 19.3242 62.8444 20.8939L62.7968 20.8701L64.7019 10.976H59.7725L54.9621 36.187H59.8915L61.5347 27.5772C62.1777 24.3188 63.8684 22.2972 65.4401 22.2972C66.5594 22.2972 66.988 23.0583 66.988 24.1285C66.988 24.7945 66.9404 25.6507 66.7737 26.3167L64.9162 36.187H69.8457L71.7746 26.0075C71.9889 24.9372 72.1318 23.6529 72.1318 22.7729C72.108 19.9426 70.6553 18.2777 68.0596 18.2777ZM83.2766 18.2777C77.3232 18.2777 73.3939 23.6291 73.3939 29.5989C73.3939 33.4043 75.7515 36.4962 80.1808 36.4962C86.0152 36.4962 89.9445 31.2875 89.9445 25.175C89.9683 21.6312 87.9203 18.2777 83.2766 18.2777ZM80.8476 32.7383C79.1568 32.7383 78.4662 31.3113 78.4662 29.5037C78.4662 26.6734 79.9189 22.0831 82.6098 22.0831C84.3482 22.0831 84.9436 23.6053 84.9436 25.0561C84.9436 28.0767 83.4433 32.7383 80.8476 32.7383ZM102.59 18.2777C99.2556 18.2777 97.3743 21.2269 97.3743 21.2269H97.3267L97.6125 18.5869H93.2308C93.0164 20.3707 92.6116 23.1058 92.2306 25.1275L88.8252 43.1795H93.7547L95.1358 35.8778H95.2549C95.2549 35.8778 96.2789 36.52 98.1364 36.52C103.947 36.52 107.733 30.574 107.733 24.5804C107.709 21.2507 106.209 18.2777 102.59 18.2777ZM97.8744 32.7859C96.5885 32.7859 95.8264 32.0486 95.8264 32.0486L96.6361 27.4583C97.2076 24.3664 98.827 22.3447 100.542 22.3447C102.066 22.3447 102.518 23.748 102.518 25.0561C102.542 28.2432 100.637 32.7859 97.8744 32.7859ZM114.758 11.2139C113.187 11.2139 111.925 12.4744 111.925 14.0679C111.925 15.5188 112.853 16.5415 114.258 16.5415H114.306C115.854 16.5415 117.164 15.495 117.187 13.6874C117.211 12.2366 116.235 11.2139 114.758 11.2139ZM107.852 36.1632H112.782L116.116 18.6582H111.162L107.852 36.1632ZM128.689 18.6344H125.26L125.427 17.8258C125.713 16.1371 126.713 14.6625 128.38 14.6625C129.261 14.6625 129.952 14.9242 129.952 14.9242L130.904 11.0474C130.904 11.0474 130.071 10.6193 128.213 10.6193C126.475 10.6193 124.712 11.1187 123.379 12.2604C121.688 13.6874 120.902 15.7566 120.521 17.8496L120.378 18.6582H118.068L117.33 22.3923H119.64L117.021 36.187H121.95L124.57 22.3923H127.975L128.689 18.6344ZM140.572 18.6582C140.572 18.6582 137.477 26.4356 136.119 30.6929H136.072C135.976 29.3134 134.857 18.6582 134.857 18.6582H129.666L132.642 34.6886C132.69 35.0454 132.666 35.2594 132.523 35.4973C131.952 36.6151 130.976 37.6854 129.832 38.4703C128.904 39.1362 127.856 39.5881 127.022 39.8735L128.404 44.0595C129.404 43.8454 131.499 43.013 133.238 41.3719C135.476 39.2789 137.572 36.0205 139.715 31.5967L145.74 18.6344H140.572V18.6582Z" fill="black"/>
<path d="M30.9578 10.0723C30.815 10.0723 27.6954 9.83446 27.6954 9.83446C27.6954 9.83446 25.5283 7.67012 25.2664 7.45606C25.1711 7.36092 25.052 7.31335 24.9568 7.31335L23.2184 43.132L35.792 40.4206C35.792 40.4206 31.3865 10.6431 31.3627 10.4291C31.2674 10.215 31.1007 10.1199 30.9578 10.0723Z" fill="#5E8E3E"/>
</g>
<defs>
<clipPath id="clip0_63_460">
<rect width="145.74" height="45.6652" fill="white" transform="translate(0 0.963013)"/>
</clipPath>
</defs>
</svg>
