<svg width="141" height="68" viewBox="0 0 141 68" fill="none" xmlns="http://www.w3.org/2000/svg">
<path d="M75.0856 21.2327H67.5884V47.4368H75.0856V21.2327Z" fill="#32325D"/>
<path fill-rule="evenodd" clip-rule="evenodd" d="M59.5534 23.4488L59.0755 21.2327H52.6237V47.4368H60.0911V29.6779C61.8534 27.3719 64.8403 27.7912 65.7663 28.1206V21.2327C64.8105 20.8733 61.3157 20.2144 59.5534 23.4488Z" fill="#32325D"/>
<path fill-rule="evenodd" clip-rule="evenodd" d="M124.4 34.4395C124.4 26.7729 120.697 20.7235 113.617 20.7235C106.509 20.7235 102.207 26.7729 102.207 34.3796C102.207 43.3938 107.285 47.9458 114.573 47.9458C118.128 47.9458 120.816 47.1372 122.847 45.9992V40.0097C120.816 41.0279 118.486 41.6568 115.529 41.6568C112.632 41.6568 110.063 40.6386 109.734 37.1048H124.341C124.341 36.7155 124.4 35.1582 124.4 34.4395ZM109.645 31.5945C109.645 28.2104 111.706 26.8029 113.588 26.8029C115.41 26.8029 117.351 28.2104 117.351 31.5945H109.645Z" fill="#32325D"/>
<path fill-rule="evenodd" clip-rule="evenodd" d="M90.6776 20.7235C87.7504 20.7235 85.8686 22.1011 84.8232 23.0594L84.4349 21.2027H77.8635V56.1215L85.3309 54.5343L85.3608 46.0591C86.4361 46.8378 88.0192 47.9458 90.6477 47.9458C95.9944 47.9458 100.863 43.6334 100.863 34.14C100.833 25.4552 95.9048 20.7235 90.6776 20.7235ZM88.8854 41.3574C87.1231 41.3574 86.0777 40.7285 85.3608 39.9498L85.3309 28.8393C86.1076 27.9708 87.1829 27.3719 88.8854 27.3719C91.6036 27.3719 93.4854 30.4265 93.4854 34.3496C93.4854 38.3626 91.6334 41.3574 88.8854 41.3574Z" fill="#32325D"/>
<path fill-rule="evenodd" clip-rule="evenodd" d="M24.4267 28.8393C24.4267 27.6713 25.3825 27.2221 26.9656 27.2221C29.2357 27.2221 32.1032 27.9109 34.3733 29.1388V22.1011C31.8941 21.1128 29.4448 20.7235 26.9656 20.7235C20.902 20.7235 16.8696 23.8979 16.8696 29.1987C16.8696 37.4642 28.2201 36.1465 28.2201 39.7102C28.2201 41.0878 27.0253 41.537 25.3526 41.537C22.8734 41.537 19.7072 40.5188 17.1982 39.1412V46.2688C19.9761 47.4667 22.7838 47.9758 25.3526 47.9758C31.5655 47.9758 35.8369 44.8912 35.8369 39.5306C35.807 30.6062 24.4267 32.1934 24.4267 28.8393Z" fill="#32325D"/>
<path fill-rule="evenodd" clip-rule="evenodd" d="M44.6185 14.734L37.3303 16.2913L37.3004 40.2793C37.3004 44.7115 40.616 47.9758 45.0367 47.9758C47.486 47.9758 49.2782 47.5266 50.2639 46.9875V40.9082C49.308 41.2975 44.5886 42.6751 44.5886 38.2428V27.6115H50.2639V21.2326H44.5886L44.6185 14.734Z" fill="#32325D"/>
<path fill-rule="evenodd" clip-rule="evenodd" d="M67.5884 18.9566L75.0856 17.3395V11.2601L67.5884 12.8474V18.9566Z" fill="#32325D"/>
</svg>
