<svg width="180" height="39" viewBox="0 0 180 39" fill="none" xmlns="http://www.w3.org/2000/svg">
<path fill-rule="evenodd" clip-rule="evenodd" d="M96.2326 27.5529C94.2764 29.5111 91.9362 30.4954 89.2241 30.4954C87.0307 30.4954 85.1669 30.0544 83.2647 28.9641V24.475C84.7952 25.4989 86.7177 26.4737 88.6135 26.4737C92.5697 26.4737 94.9244 23.7879 94.9244 19.9817C94.9244 16.1724 92.489 13.407 88.5312 13.407C86.7636 13.407 85.3309 14.0341 84.2118 15.2903C83.012 16.6514 82.3918 18.5969 82.3918 21.169V38.895H82.0938C79.9132 38.895 78.1467 37.1518 78.1467 35.0013V20.504C78.1467 14.3518 81.9592 9.38483 88.512 9.38483C91.7476 9.38483 94.3753 10.4761 96.3678 12.6688C98.2412 14.7175 99.1696 17.3133 99.1696 20.437C99.1696 23.2167 98.1899 25.5937 96.2326 27.5529ZM142.196 27.4028C140.247 29.4663 137.74 30.4954 134.7 30.4954C131.491 30.4954 128.876 29.4041 126.885 27.2115C125.013 25.1374 124.084 22.5395 124.084 19.4437C124.084 13.964 128.371 9.38483 134.013 9.38483C136.19 9.38483 138.079 9.838 139.988 10.8708V15.4057C138.458 14.3819 136.536 13.407 134.64 13.407C130.684 13.407 128.328 16.0923 128.328 19.9001C128.328 23.6556 130.821 26.4737 134.721 26.4737C136.487 26.4737 137.941 25.8209 139.105 24.5056C140.261 23.1988 140.862 21.2786 140.862 18.6992V4.59013C140.862 2.43913 142.629 0.696517 144.809 0.696517H145.107V19.361C145.107 22.6481 144.143 25.3387 142.196 27.4028ZM154.184 7.39244C153.738 7.88461 153.1 8.1112 152.321 8.1112C150.863 8.1112 149.821 7.05098 149.821 5.62453C149.821 4.16436 150.844 3.17897 152.321 3.17897C153.742 3.17897 154.821 4.21811 154.821 5.62453C154.821 6.3201 154.614 6.91661 154.184 7.39244ZM175.754 18.6992C175.754 17.0482 175.121 15.7414 173.849 14.7513C172.703 13.8602 171.272 13.407 169.53 13.407C165.688 13.407 163.221 16.37 163.221 20.0234C163.221 23.5397 165.836 26.4737 169.49 26.4737C172.032 26.4737 173.391 25.0094 174.84 23.1851V28.4451C174.102 28.991 173.252 29.5859 172.385 29.9353C171.47 30.312 170.378 30.4954 169.116 30.4954C163.005 30.4954 158.976 25.5031 158.976 19.7341C158.976 16.7716 159.909 14.3223 161.787 12.4127C163.779 10.3887 166.393 9.38483 169.593 9.38483C175.66 9.38483 180 12.8211 180 19.0301V30.0818H179.703C177.521 30.0818 175.754 28.3386 175.754 26.1876V18.6992ZM117.641 17.513C117.104 15.8763 116.432 15.0711 114.885 14.219C111.206 12.1914 107.585 13.9176 105.901 17.4972L117.641 17.513ZM114.401 30.4338C111.69 31.0023 109.029 30.5639 106.433 29.1327C103.901 27.7379 102.205 25.6633 101.355 22.9221C99.637 17.3781 103.157 11.2002 108.819 9.70416C111.626 8.96274 114.316 9.29841 116.873 10.7075C121.119 13.0492 122.667 16.6709 122.397 21.3376L105.293 21.3039C105.546 23.2072 106.742 24.6963 108.423 25.6227C110.128 26.5623 111.695 26.7868 113.149 26.342C114.764 25.8419 116.073 24.542 117.139 23.3321L120.624 25.8372C119.203 28.3465 117.267 29.832 114.401 30.4338V30.4338ZM150.198 9.79901H154.443V30.0818H154.144C151.966 30.0818 150.198 28.3386 150.198 26.1876V9.79901ZM6.21259 30.0816C2.06036 30.0816 0 27.2957 0 23.4052V8.64489C0 6.49442 1.76762 4.75127 3.94764 4.75127H4.24571V9.7989H11.4182V13.8211H4.24571V23.871C4.24571 25.5799 5.01868 26.06 6.67413 26.06H11.4182V30.0816H6.21259ZM30.8669 27.518C28.7697 29.5015 26.2489 30.4953 23.3204 30.4953C20.4193 30.4953 17.9129 29.5004 15.8157 27.518C13.7115 25.5272 12.6624 22.9937 12.6624 19.9405C12.6624 13.9839 17.2735 9.38525 23.3204 9.38525C26.2227 9.38525 28.736 10.3875 30.8461 12.3846C32.9636 14.3876 34.0213 16.9137 34.0213 19.9405C34.0213 22.9937 32.9711 25.5272 30.8669 27.518ZM50.7146 14.6795C50.0917 15.7097 49.6088 16.4485 49.2691 16.8948C48.8946 17.3801 48.525 17.7679 48.1585 18.0361C51.1088 18.9762 52.2076 20.9923 52.2076 23.9959V30.0816H51.9096C49.7296 30.0816 47.9619 28.3385 47.9619 26.1875V24.4091C47.9619 22.4641 47.0779 21.1446 44.9886 21.1446H41.1334V30.0816H40.8353C38.6553 30.0816 36.8893 28.3385 36.8893 26.1875V4.59003C36.8893 2.43903 38.6553 0.696411 40.8353 0.696411H41.1334V17.0813H42.3882C43.767 17.0813 44.6729 16.616 45.1932 15.736L48.7589 9.79996L53.596 9.79521L50.7146 14.6795ZM72.6285 27.518C70.5308 29.5015 68.0099 30.4953 65.0815 30.4953C62.1809 30.4953 59.6745 29.5004 57.5768 27.518C55.4726 25.5272 54.4235 22.9937 54.4235 19.9405C54.4235 13.9839 59.0345 9.38525 65.0815 9.38525C67.9843 9.38525 70.4971 10.3875 72.6077 12.3846C74.7252 14.3876 75.7824 16.9137 75.7824 19.9405C75.7824 22.9937 74.7327 25.5272 72.6285 27.518ZM69.5644 15.2201C68.394 14.0129 66.9085 13.4069 65.0815 13.4069C61.175 13.4069 58.8364 16.2166 58.8364 19.9405C58.8364 23.6128 61.2306 26.4736 65.0815 26.4736C68.9341 26.4736 71.3272 23.6128 71.3272 19.9405C71.3272 17.9908 70.7332 16.4263 69.5644 15.2201ZM27.8028 15.2201C26.6329 14.0129 25.1468 13.4069 23.3204 13.4069C19.4139 13.4069 17.0753 16.2166 17.0753 19.9405C17.0753 23.6128 19.4695 26.4736 23.3204 26.4736C27.1725 26.4736 29.5656 23.6128 29.5656 19.9405C29.5656 17.9908 28.9721 16.4263 27.8028 15.2201Z" fill="#42B549"/>
</svg>
