<svg width="120" height="36" viewBox="0 0 120 36" fill="none" xmlns="http://www.w3.org/2000/svg">
<g clip-path="url(#clip0_63_451)">
<path d="M32.3438 8.3391C27.8906 8.3391 24.4922 11.2578 23.0859 15.9276C20.9766 12.7755 19.4531 9.27307 18.3984 5.65393H13.5938V18.029C13.5938 20.4807 11.6016 22.4654 9.14062 22.4654C6.67969 22.4654 4.6875 20.4807 4.6875 18.029V5.77068H0V18.1458C0 23.1659 4.10156 27.3688 9.25781 27.3688C14.4141 27.3688 18.5156 23.2826 18.5156 18.1458V16.0444C19.4531 18.029 20.625 19.897 21.9141 21.6482L18.9844 35.3075H23.9062L26.0156 25.3841C27.8906 26.6683 30.1172 27.3688 32.4609 27.3688C37.7344 27.3688 41.9531 23.1659 41.9531 17.9123C41.8359 12.6587 37.6172 8.3391 32.3438 8.3391ZM32.3438 22.5822C30.3516 22.4654 28.4766 21.7649 26.9531 20.4807L27.3047 18.6128V18.496C27.6562 16.5113 28.8281 13.1257 32.2266 13.1257C34.8047 13.009 36.9141 15.1104 37.0312 17.6788C37.1484 20.2472 35.0391 22.3487 32.4609 22.4654L32.3438 22.5822Z" fill="#6FDA44"/>
<path d="M76.6406 8.33919C71.3672 8.33919 67.1484 12.5421 67.1484 17.7957C67.1484 23.0492 71.3672 27.2521 76.6406 27.2521C81.9141 27.2521 86.1328 23.0492 86.1328 17.7957C86.1328 12.5421 81.9141 8.33919 76.6406 8.33919ZM76.6406 23.3995C73.5938 23.3995 71.0156 20.9478 71.0156 17.7957C71.0156 14.6435 73.4766 12.1918 76.6406 12.1918C79.6875 12.1918 82.2656 14.6435 82.2656 17.6789C82.2656 20.8311 79.8047 23.3995 76.6406 23.3995ZM97.7344 12.8923C95.0391 12.8923 92.8125 15.1105 92.8125 17.7957V26.7851H88.7109V8.92293H92.8125V11.7248C93.9844 9.97364 95.9766 8.92293 98.0859 8.92293H99.375V12.8923H97.7344ZM56.4844 8.92293L59.5312 21.298L62.9297 8.92293H66.9141L61.7578 26.7851H57.6562L54.4922 14.2933L51.3281 26.7851H47.2266L42.0703 8.92293H46.0547L49.4531 21.298L52.6172 8.92293H56.4844ZM111.328 17.0952C114.375 15.4607 116.133 12.3086 116.133 8.80618H112.148C112.148 11.8416 109.688 14.1765 106.758 14.1765H106.172V0.283691H102.07V26.7851H106.172V18.3794H106.641C107.109 18.3794 107.578 18.6129 107.812 18.9631L113.555 26.7851H118.477L111.328 17.0952Z" fill="black"/>
</g>
<defs>
<clipPath id="clip0_63_451">
<rect width="120" height="35.0239" fill="white" transform="translate(0 0.283691)"/>
</clipPath>
</defs>
</svg>
