<svg width="32" height="33" viewBox="0 0 32 33" fill="none" xmlns="http://www.w3.org/2000/svg">
<g clip-path="url(#clip0_63_220)">
<path d="M15.9376 29.6351C17.0766 29.6351 18.0001 28.7117 18.0001 27.5726C18.0001 26.4335 17.0766 25.5101 15.9376 25.5101C14.7985 25.5101 13.8751 26.4335 13.8751 27.5726C13.8751 28.7117 14.7985 29.6351 15.9376 29.6351Z" fill="#10375C"/>
<path d="M22.0719 20.4971C20.4456 18.8859 18.1146 17.8851 15.9882 17.8851C15.988 17.8851 15.9875 17.8851 15.9873 17.8851H15.8972C15.8968 17.8851 15.8966 17.8851 15.8963 17.8851C13.7698 17.8851 11.4386 18.886 9.8124 20.4971C9.32203 20.983 9.31834 21.7744 9.80421 22.2649C10.0487 22.5116 10.3704 22.6351 10.6922 22.6351C11.0102 22.6351 11.3282 22.5146 11.5719 22.2731C12.7296 21.1261 14.4269 20.3851 15.8964 20.3851C15.8966 20.3851 15.8968 20.3851 15.897 20.3851H15.9875C15.9877 20.3851 15.9878 20.3851 15.988 20.3851C17.4573 20.3851 19.1548 21.1262 20.3123 22.2731C20.8027 22.7589 21.5943 22.7554 22.0801 22.2649C22.566 21.7745 22.5623 20.983 22.0719 20.4971Z" fill="#10375C"/>
<path d="M31.6644 10.1579C27.5563 5.75019 21.9934 3.32269 15.9998 3.32263C10.0066 3.32269 4.44372 5.75019 0.335543 10.1579C-0.135081 10.6629 -0.107269 11.4539 0.39773 11.9246C0.902792 12.3952 1.69373 12.3674 2.16441 11.8624C5.79441 7.96762 10.7079 5.82269 16.0002 5.82263C21.2921 5.82269 26.2056 7.96762 29.8355 11.8624C30.0817 12.1265 30.4155 12.2601 30.7502 12.2601C31.0554 12.2601 31.3614 12.149 31.6022 11.9246C32.1072 11.4538 32.1351 10.6629 31.6644 10.1579Z" fill="#10375C"/>
<path d="M27.0746 15.32C24.0379 12.2604 20.1049 10.5754 15.9999 10.5756C11.8939 10.5756 7.96081 12.2606 4.92507 15.3201C4.43882 15.8102 4.44188 16.6016 4.93194 17.0879C5.422 17.5741 6.21344 17.571 6.69969 17.081C9.2625 14.4981 12.5654 13.0756 15.9999 13.0756C19.4335 13.0754 22.7363 14.498 25.3001 17.0811C25.5445 17.3273 25.8658 17.4505 26.1873 17.4505C26.5056 17.4505 26.8241 17.3297 27.068 17.0877C27.5579 16.6014 27.5609 15.81 27.0746 15.32Z" fill="#10375C"/>
</g>
<defs>
<clipPath id="clip0_63_220">
<rect width="32" height="32" fill="white" transform="translate(0 0.478882)"/>
</clipPath>
</defs>
</svg>
