<svg width="24" height="25" viewBox="0 0 24 25" fill="none" xmlns="http://www.w3.org/2000/svg">
<path fill-rule="evenodd" clip-rule="evenodd" d="M21.3903 4.59308C22.4182 4.86993 23.2288 5.68035 23.5055 6.70848C24.0197 8.5864 23.9999 12.5008 23.9999 12.5008C23.9999 12.5008 23.9999 16.3953 23.5057 18.2734C23.2288 19.3013 22.4184 20.1119 21.3903 20.3886C19.5122 20.883 12 20.883 12 20.883C12 20.883 4.50731 20.883 2.60961 20.369C1.58148 20.0921 0.771054 19.2815 0.4942 18.2536C0 16.3953 0 12.481 0 12.481C0 12.481 0 8.5864 0.4942 6.70848C0.770871 5.68053 1.60125 4.85015 2.60943 4.57348C4.48753 4.0791 11.9998 4.0791 11.9998 4.0791C11.9998 4.0791 19.5122 4.0791 21.3903 4.59308ZM15.8549 12.4811L9.60788 16.0791V8.88304L15.8549 12.4811Z" fill="white"/>
</svg>
